<mxfile host="app.diagrams.net" agent="Mozilla/5.0 (Windows NT 10.0; Win64; x64) AppleWebKit/537.36 (KHTML, like Gecko) Chrome/132.0.0.0 Safari/537.36" version="26.0.11">
  <diagram name="Page-1" id="cWFyLghjaHlHPHBaeC5T">
    <mxGraphModel dx="1034" dy="507" grid="1" gridSize="10" guides="1" tooltips="1" connect="1" arrows="1" fold="1" page="1" pageScale="1" pageWidth="827" pageHeight="1169" math="0" shadow="0">
      <root>
        <mxCell id="0" />
        <mxCell id="1" parent="0" />
        <mxCell id="-rkalsECWcXKEm1_NkvY-3" value="" style="verticalLabelPosition=bottom;shadow=0;dashed=0;align=center;html=1;verticalAlign=top;shape=mxgraph.electrical.logic_gates.logic_gate;operation=xor;" vertex="1" parent="1">
          <mxGeometry x="220" y="100" width="100" height="60" as="geometry" />
        </mxCell>
        <mxCell id="-rkalsECWcXKEm1_NkvY-4" value="" style="shape=or;whiteSpace=wrap;html=1;" vertex="1" parent="1">
          <mxGeometry x="380" y="360" width="50" height="60" as="geometry" />
        </mxCell>
        <mxCell id="-rkalsECWcXKEm1_NkvY-5" value="" style="shape=or;whiteSpace=wrap;html=1;" vertex="1" parent="1">
          <mxGeometry x="380" y="230" width="50" height="60" as="geometry" />
        </mxCell>
        <mxCell id="-rkalsECWcXKEm1_NkvY-17" style="edgeStyle=orthogonalEdgeStyle;rounded=0;orthogonalLoop=1;jettySize=auto;html=1;exitX=1;exitY=0.5;exitDx=0;exitDy=0;exitPerimeter=0;" edge="1" parent="1" source="-rkalsECWcXKEm1_NkvY-6" target="-rkalsECWcXKEm1_NkvY-16">
          <mxGeometry relative="1" as="geometry" />
        </mxCell>
        <mxCell id="-rkalsECWcXKEm1_NkvY-6" value="" style="verticalLabelPosition=bottom;shadow=0;dashed=0;align=center;html=1;verticalAlign=top;shape=mxgraph.electrical.logic_gates.logic_gate;operation=xor;" vertex="1" parent="1">
          <mxGeometry x="610" y="360" width="100" height="60" as="geometry" />
        </mxCell>
        <mxCell id="-rkalsECWcXKEm1_NkvY-30" style="edgeStyle=orthogonalEdgeStyle;rounded=0;orthogonalLoop=1;jettySize=auto;html=1;exitX=1;exitY=0.5;exitDx=0;exitDy=0;exitPerimeter=0;entryX=0;entryY=0.5;entryDx=0;entryDy=0;" edge="1" parent="1" source="-rkalsECWcXKEm1_NkvY-7" target="-rkalsECWcXKEm1_NkvY-28">
          <mxGeometry relative="1" as="geometry">
            <mxPoint x="710" y="240" as="targetPoint" />
          </mxGeometry>
        </mxCell>
        <mxCell id="-rkalsECWcXKEm1_NkvY-7" value="" style="shape=xor;whiteSpace=wrap;html=1;" vertex="1" parent="1">
          <mxGeometry x="620" y="210" width="60" height="60" as="geometry" />
        </mxCell>
        <mxCell id="-rkalsECWcXKEm1_NkvY-8" style="edgeStyle=orthogonalEdgeStyle;rounded=0;orthogonalLoop=1;jettySize=auto;html=1;exitX=1;exitY=0.5;exitDx=0;exitDy=0;exitPerimeter=0;entryX=0;entryY=0.25;entryDx=0;entryDy=0;entryPerimeter=0;" edge="1" parent="1" source="-rkalsECWcXKEm1_NkvY-3" target="-rkalsECWcXKEm1_NkvY-6">
          <mxGeometry relative="1" as="geometry" />
        </mxCell>
        <mxCell id="-rkalsECWcXKEm1_NkvY-20" style="edgeStyle=orthogonalEdgeStyle;rounded=0;orthogonalLoop=1;jettySize=auto;html=1;exitX=1;exitY=1;exitDx=0;exitDy=0;entryX=0;entryY=0.25;entryDx=0;entryDy=0;entryPerimeter=0;" edge="1" parent="1" source="-rkalsECWcXKEm1_NkvY-10" target="-rkalsECWcXKEm1_NkvY-5">
          <mxGeometry relative="1" as="geometry">
            <mxPoint x="340" y="230" as="targetPoint" />
            <Array as="points">
              <mxPoint x="160" y="174" />
              <mxPoint x="160" y="245" />
            </Array>
          </mxGeometry>
        </mxCell>
        <mxCell id="-rkalsECWcXKEm1_NkvY-10" value="a" style="ellipse;whiteSpace=wrap;html=1;" vertex="1" parent="1">
          <mxGeometry x="10" y="140" width="40" height="40" as="geometry" />
        </mxCell>
        <mxCell id="-rkalsECWcXKEm1_NkvY-11" style="edgeStyle=orthogonalEdgeStyle;rounded=0;orthogonalLoop=1;jettySize=auto;html=1;exitX=1;exitY=0.5;exitDx=0;exitDy=0;entryX=0;entryY=0.25;entryDx=0;entryDy=0;entryPerimeter=0;" edge="1" parent="1" source="-rkalsECWcXKEm1_NkvY-10" target="-rkalsECWcXKEm1_NkvY-3">
          <mxGeometry relative="1" as="geometry" />
        </mxCell>
        <mxCell id="-rkalsECWcXKEm1_NkvY-13" style="edgeStyle=orthogonalEdgeStyle;rounded=0;orthogonalLoop=1;jettySize=auto;html=1;exitX=1;exitY=0.5;exitDx=0;exitDy=0;entryX=0;entryY=0.75;entryDx=0;entryDy=0;entryPerimeter=0;" edge="1" parent="1" source="-rkalsECWcXKEm1_NkvY-12" target="-rkalsECWcXKEm1_NkvY-3">
          <mxGeometry relative="1" as="geometry">
            <mxPoint x="120" y="250" as="targetPoint" />
            <Array as="points">
              <mxPoint x="150" y="250" />
              <mxPoint x="150" y="145" />
            </Array>
          </mxGeometry>
        </mxCell>
        <mxCell id="-rkalsECWcXKEm1_NkvY-12" value="b" style="ellipse;whiteSpace=wrap;html=1;" vertex="1" parent="1">
          <mxGeometry x="10" y="230" width="40" height="40" as="geometry" />
        </mxCell>
        <mxCell id="-rkalsECWcXKEm1_NkvY-14" value="c" style="ellipse;whiteSpace=wrap;html=1;" vertex="1" parent="1">
          <mxGeometry x="10" y="390" width="40" height="40" as="geometry" />
        </mxCell>
        <mxCell id="-rkalsECWcXKEm1_NkvY-15" style="edgeStyle=orthogonalEdgeStyle;rounded=0;orthogonalLoop=1;jettySize=auto;html=1;exitX=0.5;exitY=1;exitDx=0;exitDy=0;entryX=0;entryY=0.75;entryDx=0;entryDy=0;entryPerimeter=0;" edge="1" parent="1" source="-rkalsECWcXKEm1_NkvY-14" target="-rkalsECWcXKEm1_NkvY-6">
          <mxGeometry relative="1" as="geometry">
            <mxPoint x="40" y="475" as="sourcePoint" />
            <mxPoint x="600" y="470" as="targetPoint" />
            <Array as="points">
              <mxPoint x="30" y="450" />
              <mxPoint x="610" y="450" />
            </Array>
          </mxGeometry>
        </mxCell>
        <mxCell id="-rkalsECWcXKEm1_NkvY-16" value="sum" style="ellipse;whiteSpace=wrap;html=1;aspect=fixed;" vertex="1" parent="1">
          <mxGeometry x="730" y="370" width="40" height="40" as="geometry" />
        </mxCell>
        <mxCell id="-rkalsECWcXKEm1_NkvY-21" style="edgeStyle=orthogonalEdgeStyle;rounded=0;orthogonalLoop=1;jettySize=auto;html=1;exitX=1;exitY=1;exitDx=0;exitDy=0;entryX=0;entryY=0.75;entryDx=0;entryDy=0;entryPerimeter=0;" edge="1" parent="1" source="-rkalsECWcXKEm1_NkvY-12" target="-rkalsECWcXKEm1_NkvY-5">
          <mxGeometry relative="1" as="geometry" />
        </mxCell>
        <mxCell id="-rkalsECWcXKEm1_NkvY-22" style="edgeStyle=orthogonalEdgeStyle;rounded=0;orthogonalLoop=1;jettySize=auto;html=1;exitX=1;exitY=0.5;exitDx=0;exitDy=0;exitPerimeter=0;entryX=0.175;entryY=0.25;entryDx=0;entryDy=0;entryPerimeter=0;" edge="1" parent="1" source="-rkalsECWcXKEm1_NkvY-5" target="-rkalsECWcXKEm1_NkvY-7">
          <mxGeometry relative="1" as="geometry" />
        </mxCell>
        <mxCell id="-rkalsECWcXKEm1_NkvY-25" style="edgeStyle=orthogonalEdgeStyle;rounded=0;orthogonalLoop=1;jettySize=auto;html=1;exitX=1;exitY=0.5;exitDx=0;exitDy=0;exitPerimeter=0;entryX=0.175;entryY=0.75;entryDx=0;entryDy=0;entryPerimeter=0;" edge="1" parent="1" source="-rkalsECWcXKEm1_NkvY-4" target="-rkalsECWcXKEm1_NkvY-7">
          <mxGeometry relative="1" as="geometry">
            <Array as="points">
              <mxPoint x="430" y="290" />
              <mxPoint x="580" y="290" />
              <mxPoint x="580" y="255" />
            </Array>
          </mxGeometry>
        </mxCell>
        <mxCell id="-rkalsECWcXKEm1_NkvY-28" value="carry" style="ellipse;whiteSpace=wrap;html=1;aspect=fixed;" vertex="1" parent="1">
          <mxGeometry x="720" y="220" width="40" height="40" as="geometry" />
        </mxCell>
        <mxCell id="-rkalsECWcXKEm1_NkvY-31" style="edgeStyle=orthogonalEdgeStyle;rounded=0;orthogonalLoop=1;jettySize=auto;html=1;exitX=1;exitY=0.5;exitDx=0;exitDy=0;entryX=0;entryY=0.75;entryDx=0;entryDy=0;entryPerimeter=0;" edge="1" parent="1" source="-rkalsECWcXKEm1_NkvY-14" target="-rkalsECWcXKEm1_NkvY-4">
          <mxGeometry relative="1" as="geometry" />
        </mxCell>
        <mxCell id="-rkalsECWcXKEm1_NkvY-32" style="edgeStyle=orthogonalEdgeStyle;rounded=0;orthogonalLoop=1;jettySize=auto;html=1;exitX=1;exitY=0.5;exitDx=0;exitDy=0;exitPerimeter=0;entryX=0;entryY=0.25;entryDx=0;entryDy=0;entryPerimeter=0;" edge="1" parent="1" source="-rkalsECWcXKEm1_NkvY-3" target="-rkalsECWcXKEm1_NkvY-4">
          <mxGeometry relative="1" as="geometry" />
        </mxCell>
      </root>
    </mxGraphModel>
  </diagram>
</mxfile>
